# xmcd
#
# Track frame offsets: 
#        150
#        24845
#        53961
#        74737
#        93903
#        115392
#        131938
#
# Disc length: 1976 seconds
#
# Revision: 0
# Processed by: cddbd v1.5.2PL0 Copyright (c) Steve Scherf et al.
# Submitted via: ExactAudioCopy v0.99pb5
#
DISCID=6307b607
DTITLE=Sash! - Mirror Mirror
DYEAR=2012
DGENRE=Disco
TTITLE0=Mirror Mirror (Marc Lime and K Bastian Extended)
TTITLE1=Mirror Mirror (Maurice Da Vido Extended)
TTITLE2=Mirror Mirror (Thomas Troelsen Extended)
TTITLE3=Mirror Mirror (Tokapi Extended Mix)
TTITLE4=Mirror Mirror (Alisson and Turner Extended)
TTITLE5=Mirror Mirror (AMP Black Edit)
TTITLE6=Mirror Mirror (Radio Edit)
EXTD=
EXTT0=
EXTT1=
EXTT2=
EXTT3=
EXTT4=
EXTT5=
EXTT6=
PLAYORDER=
